<?xml version="1.0" standalone="no"?>
<!DOCTYPE svg PUBLIC "-//W3C//DTD SVG 20010904//EN"
 "http://www.w3.org/TR/2001/REC-SVG-20010904/DTD/svg10.dtd">
<svg version="1.0" xmlns="http://www.w3.org/2000/svg"
 width="418.000000pt" height="418.000000pt" viewBox="0 0 418.000000 418.000000"
 preserveAspectRatio="xMidYMid meet">
<metadata>
Created by potrace 1.11, written by Peter Selinger 2001-2013
</metadata>
<g transform="translate(0.000000,418.000000) scale(0.100000,-0.100000)"
fill="#000000" stroke="none">
<path d="M1845 4139 c-364 -46 -713 -188 -1007 -410 -107 -80 -307 -280 -387
-387 -226 -300 -365 -645 -411 -1022 -13 -109 -13 -351 0 -460 46 -377 185
-722 411 -1022 80 -107 280 -307 387 -387 219 -165 476 -291 730 -356 203 -52
272 -60 522 -60 250 0 319 8 522 60 254 65 511 191 730 356 107 80 307 280
387 387 165 219 291 476 356 730 52 203 60 272 60 522 0 250 -8 319 -60 522
-65 254 -191 511 -356 730 -80 107 -280 307 -387 387 -299 226 -646 365 -1022
411 -100 12 -375 11 -475 -1z m1236 -669 c50 -28 49 3 49 -1030 0 -790 2 -960
13 -960 8 0 24 -12 38 -26 l24 -26 0 -374 0 -374 -28 -27 -27 -28 -1013 -3
c-707 -2 -1023 0 -1049 8 -73 21 -69 -72 -66 1304 l3 1235 22 22 c14 15 38 23
72 27 l51 5 0 89 c0 93 13 137 47 157 25 14 1837 15 1864 1z"/>
<path d="M1362 3238 l3 -51 65 -22 c36 -12 93 -36 126 -53 67 -34 202 -132
248 -181 l30 -31 458 0 c445 0 459 -1 478 -20 11 -11 20 -31 20 -45 0 -14 -9
-34 -20 -45 -19 -19 -33 -20 -429 -20 l-408 0 41 -84 41 -85 375 -3 374 -3 16
-27 c13 -25 13 -31 0 -55 l-16 -28 -358 -3 c-321 -2 -357 -4 -352 -18 3 -9 9
-47 12 -85 l7 -69 338 0 c326 0 340 -1 359 -20 28 -28 25 -64 -6 -89 -26 -20
-38 -21 -356 -21 l-330 0 7 -42 c4 -23 13 -60 19 -83 l12 -40 319 -3 c279 -2
321 -4 337 -19 24 -21 23 -58 -2 -83 -19 -19 -33 -20 -311 -20 l-291 0 21 -32
c11 -18 39 -57 61 -85 l41 -53 230 0 c216 0 230 -1 249 -20 26 -26 25 -62 -1
-86 -18 -16 -42 -20 -163 -24 l-141 -5 62 -28 c92 -41 198 -65 309 -69 l99 -3
3 903 2 902 -790 0 -791 0 3 -52z"/>
</g>
</svg>
